# xmcd
#
# Track frame offsets:
# 150
# 10619
# 20457
# 34982
# 48572
# 62904
# 71717
# 86385
# 100653
# 109672
# 124412
# 132962
# 148077
# 162943
# 175222
# 186480
# 210274
# 224644
# 234876
# 247082
#
# Disc length: 3531 seconds
#
#
# Revision: 0
# Processed by: cddbd v1.5.2PL0 Copyright (c) Steve Scherf et al.
# Submitted via: FreeRIP 2.96 
#
DISCID=230dc914
DTITLE=Old Boys - Old Boys 20 éves jubileum CD1
DYEAR=1999
DGENRE=Pop
TTITLE0=Da-Doo Ron Ron
TTITLE1=Christmas Tree
TTITLE2=Silence In Golden
TTITLE3=Pretty Woman
TTITLE4=Judy In Disguise
TTITLE5=Sweet Dreams
TTITLE6=Wandered
TTITLE7=The Young Ones
TTITLE8=My Boy Lollypop
TTITLE9=Be My Baby
TTITLE10=I'm Henry VIII I am
TTITLE11=Words
TTITLE12=Weep On More My Baby
TTITLE13=These Boots Are Made For Walking
TTITLE14=Good Luck Charm
TTITLE15=I Remember Elvis Presley
TTITLE16=If I Had a Hammer
TTITLE17=Orange Blossom Special
TTITLE18=Twist and Shout
TTITLE19=Let it be
EXTD=
EXTT0=
EXTT1=
EXTT2=
EXTT3=
EXTT4=
EXTT5=
EXTT6=
EXTT7=
EXTT8=
EXTT9=
EXTT10=
EXTT11=
EXTT12=
EXTT13=
EXTT14=
EXTT15=
EXTT16=
EXTT17=
EXTT18=
EXTT19=
PLAYORDER=
